:SAMPLES-PER-SECOND 30
:FULLY-SPECIFIED
:DEGREES
212
root  -17.7639 32.6419 13.8705 -159.804 61.4493 179.896
RightUpLeg  -24.8344 -10.524 -6.63666
RightLeg  30.0112 2.71522 1.33297
RightFoot  -11.927 -0.0943046 -0.374575
RightToes  -38.0781 -0.203315 -0.30401
Spine  2.81507 0.577889 2.55179
Spine1  5.5393 1.46372 5.38894
HEad  -63.543 23.0579 -5.95161
LeftShoulder1  -1.94126e-019 -3.10601e-018 -2.51263e-017
LeftArm  -2.26085 3.12738 -75.1415
LeftForeArm  29.5843 -58.9175 -16.0493
LeftHand  -0.881939 -1.91565 14.175
RightShoulder  -4.96962e-017 0 -2.36833e-017
RightArm  -4.75553 1.55233 71.4931
RightForeArm  49.3336 58.2667 13.6223
RightHand  -0.549098 1.25157 -9.73101
LeftUpLeg  -47.3754 20.5158 -3.13323
LeftLeg  52.0745 10.239 11.3092
LeftFoot  -13.3691 -0.419512 -3.41677
LeftToes  -16.0414 1.9075e-006 4.29692e-008
213
root  -17.2459 32.8533 13.0927 -159.169 61.4643 179.434
RightUpLeg  -22.2578 -10.5796 -7.552
RightLeg  25.4005 2.51178 0.994401
RightFoot  -10.0839 -0.0664569 -0.221999
RightToes  -39.2267 -0.212336 -0.310713
Spine  2.84875 0.895302 2.0374
Spine1  5.5766 2.19735 4.34171
HEad  -64.1788 23.1876 -6.05485
LeftShoulder1  -1.94126e-019 -3.10601e-018 -2.51263e-017
LeftArm  -5.38471 5.94397 -72.2849
LeftForeArm  29.775 -60.1803 -16.9765
LeftHand  -0.864901 -1.10519 15.5725
RightShoulder  -4.96962e-017 0 -2.36833e-017
RightArm  -2.11817 3.15003 68.0406
RightForeArm  57.3708 63.4534 16.6183
RightHand  -0.686731 1.98608 -10.9733
LeftUpLeg  -52.0167 23.0665 -6.06477
LeftLeg  48.1223 10.1882 9.83233
LeftFoot  -12.3894 -0.332601 -2.90201
LeftToes  -19.1924 1.9075e-006 4.29692e-008
214
root  -16.6872 32.815 12.2887 -157.897 61.2745 179.994
RightUpLeg  -19.7719 -10.8906 -7.99456
RightLeg  21.847 2.39031 0.780833
RightFoot  -9.27496 -0.0559347 -0.156652
RightToes  -40.33 -0.221124 -0.316979
Spine  2.85521 1.32677 1.50069
Spine1  5.55695 3.2032 3.19642
HEad  -64.4614 22.7531 -5.86865
LeftShoulder1  -1.94126e-019 -3.10601e-018 -2.51263e-017
LeftArm  -10.9967 7.88846 -68.3045
LeftForeArm  29.7059 -63.7142 -20.1852
LeftHand  -0.76264 0.106895 16.8
RightShoulder  -4.96962e-017 0 -2.36833e-017
RightArm  -3.14769 6.49176 63.4945
RightForeArm  62.4399 67.6297 20.2931
RightHand  -0.716487 1.91981 -11.5372
LeftUpLeg  -56.4974 24.3181 -7.6368
LeftLeg  45.5574 9.28111 8.21929
LeftFoot  -11.1907 -0.23561 -2.24306
LeftToes  -20.7778 1.9075e-006 4.29692e-008
215
root  -15.9446 32.5155 11.4296 -155.97 60.4342 -177.599
RightUpLeg  -16.3565 -11.2623 -7.60219
RightLeg  19.3588 2.05577 0.575015
RightFoot  -9.45021 -0.0536181 -0.114247
RightToes  -41.4618 -0.230265 -0.32323
Spine  2.93348 1.93555 1.21418
Spine1  5.71477 4.57795 2.49013
HEad  -63.81 21.8168 -5.4744
LeftShoulder1  -1.94126e-019 -3.10601e-018 -2.51263e-017
LeftArm  -15.8312 7.99429 -63.5528
LeftForeArm  32.6632 -67.1531 -23.9818
LeftHand  -0.634231 1.05135 16.9486
RightShoulder  -4.96962e-017 0 -2.36833e-017
RightArm  -8.2102 10.3594 57.4128
RightForeArm  63.476 70.3569 23.992
RightHand  -0.640734 1.29495 -11.2563
LeftUpLeg  -59.6282 24.2205 -6.40582
LeftLeg  45.3292 7.6292 6.72591
LeftFoot  -9.35709 -0.133323 -1.46747
LeftToes  -20.0709 1.9075e-006 4.29692e-008
216
root  -14.9579 32.0508 10.3742 -155.522 58.5388 -175.71
RightUpLeg  -11.5464 -12.2808 -7.51677
RightLeg  17.756 1.4308 0.357598
RightFoot  -10.0976 -0.0508982 -0.0390508
RightToes  -43.1908 -0.244461 -0.332428
Spine  3.06354 2.23216 1.02057
Spine1  5.95473 5.23806 2.02931
HEad  -62.9054 20.9408 -5.53644
LeftShoulder1  -1.94126e-019 -3.10601e-018 -2.51263e-017
LeftArm  -19.0024 6.81313 -58.4444
LeftForeArm  35.396 -69.4405 -27.251
LeftHand  -0.513721 2.21259 18.63
RightShoulder  -4.96962e-017 0 -2.36833e-017
RightArm  -15.6781 13.8541 50.2547
RightForeArm  63.322 71.8345 26.7098
RightHand  -0.611985 0.434043 -12.2712
LeftUpLeg  -60.3207 22.2593 -3.45164
LeftLeg  46.8893 6.78665 6.32581
LeftFoot  -7.99568 -0.0882732 -1.10147
LeftToes  -18.8554 1.9075e-006 4.29692e-008
217
root  -13.838 31.5119 9.04137 -156.699 56.5045 -175.528
RightUpLeg  -6.91181 -13.8668 -8.70853
RightLeg  18.0246 0.992727 0.252638
RightFoot  -10.3923 -0.0467352 0.0251625
RightToes  -46.9378 -0.27614 -0.350866
Spine  2.88975 2.31629 0.416495
Spine1  5.51947 5.40145 0.858222
HEad  -61.9317 19.7332 -5.21002
LeftShoulder1  -1.94126e-019 -3.10601e-018 -2.51263e-017
LeftArm  -21.3155 5.24236 -53.2531
LeftForeArm  38.6055 -71.1428 -30.1358
LeftHand  -0.53776 2.03053 18.4645
RightShoulder  -4.96962e-017 0 -2.36833e-017
RightArm  -23.903 15.7864 42.9837
RightForeArm  62.2386 73.574 30.9915
RightHand  -0.456696 -1.37878 -13.1195
LeftUpLeg  -59.234 20.4263 -2.24143
LeftLeg  48.6568 7.80893 7.72216
LeftFoot  -6.82064 -0.07661 -1.12399
LeftToes  -14.5989 1.9075e-006 4.29692e-008
218
root  -12.7371 31.0378 7.45401 -158.007 54.8628 -176.191
RightUpLeg  -4.8045 -13.9885 -10.7763
RightLeg  22.4621 0.393073 0.130085
RightFoot  -8.91949 -0.0307403 0.149553
RightToes  -53.2218 -0.33175 -0.377018
Spine  2.34553 2.43302 -0.427543
Spine1  4.36298 5.56207 -0.729827
HEad  -61.3017 18.0461 -5.10742
LeftShoulder1  -1.94126e-019 -3.10601e-018 -2.51263e-017
LeftArm  -22.5785 2.66979 -49.1957
LeftForeArm  41.6868 -72.2814 -32.3066
LeftHand  -0.549788 1.9464 18.425
RightShoulder  -4.96962e-017 0 -2.36833e-017
RightArm  -32.089 16.4538 35.4739
RightForeArm  66.4975 75.9555 38.0752
RightHand  -0.314327 -2.87911 -14.1458
LeftUpLeg  -57.1015 18.8822 -2.28308
LeftLeg  50.1987 7.44953 7.7754
LeftFoot  -0.561366 -0.000279575 0.104402
LeftToes  -14.3732 1.9075e-006 4.29692e-008
219
root  -11.6899 30.7087 5.74448 -159.973 53.4083 -177.333
RightUpLeg  -5.92331 -12.4917 -13.0919
RightLeg  32.8965 -0.747206 -0.431111
RightFoot  -3.01464 -0.00731637 0.291176
RightToes  -69.0983 -0.481918 -0.414753
Spine  2.04866 2.60174 -1.34527
Spine1  3.66145 5.82415 -2.45915
HEad  -60.502 15.733 -5.47526
LeftShoulder1  -1.94126e-019 -3.10601e-018 -2.51263e-017
LeftArm  -24.2302 -1.80523 -47.6517
LeftForeArm  46.2768 -73.36 -34.3338
LeftHand  -0.633132 1.3686 18.2219
RightShoulder  -4.96962e-017 0 -2.36833e-017
RightArm  -40.0486 16.7051 27.8856
RightForeArm  75.1535 78.0564 46.9333
RightHand  -0.25341 -3.70068 -16.7466
LeftUpLeg  -55.5114 17.3067 -2.46581
LeftLeg  55.54 6.88462 8.66821
LeftFoot  -5.19339 -0.0447026 -0.824121
LeftToes  -14.5922 1.9075e-006 4.29692e-008
220
root  -10.7342 30.6262 4.13019 -162.306 50.6319 -179.229
RightUpLeg  -9.6271 -11.8832 -14.8793
RightLeg  46.0928 -1.65652 -1.54985
RightFoot  9.63079 0.0554567 -0.115872
RightToes  -76.071 -0.550021 -0.417942
Spine  1.94816 2.2535 -2.45347
Spine1  3.29933 5.00383 -4.50735
HEad  -60.09 13.3799 -5.11047
LeftShoulder1  -1.94126e-019 -3.10601e-018 -2.51263e-017
LeftArm  -25.4508 -8.71301 -47.4101
LeftForeArm  51.0568 -74.9317 -38.6206
LeftHand  -0.630885 1.22888 17.5613
RightShoulder  -4.96962e-017 0 -2.36833e-017
RightArm  -48.4499 17.5032 21.7163
RightForeArm  82.6036 79.2565 54.5984
RightHand  -0.25104 -3.85839 -18.3181
LeftUpLeg  -52.6861 15.7471 -3.77274
LeftLeg  57.0535 6.18731 8.23756
LeftFoot  -9.13256 -0.13229 -1.49475
LeftToes  -11.6261 1.9075e-006 4.29692e-008
221
root  -9.72093 30.7943 2.78234 -162.252 47.0645 -178.528
RightUpLeg  -14.9317 -13.0649 -13.2776
RightLeg  58.7347 -3.4708 -5.03275
RightFoot  19.1782 0.393323 -1.75933
RightToes  -42.0438 -0.235013 -0.326374
Spine  1.94377 1.88063 -2.96211
Spine1  3.17961 4.17083 -5.48991
HEad  -59.5255 10.6118 -3.67685
LeftShoulder1  -1.94126e-019 -3.10601e-018 -2.51263e-017
LeftArm  -24.1581 -18.6308 -48.9071
LeftForeArm  55.6685 -75.892 -41.4869
LeftHand  -0.74474 0.685833 18.3696
RightShoulder  -4.96962e-017 0 -2.36833e-017
RightArm  -57.1439 18.7028 16.6643
RightForeArm  88.9582 79.9385 60.1151
RightHand  -0.207855 -4.21003 -19.5306
LeftUpLeg  -49.1355 14.148 -2.82777
LeftLeg  56.4211 5.27797 6.88369
LeftFoot  -12.076 -0.197496 -1.70543
LeftToes  -12.7295 1.9075e-006 4.29692e-008
222
root  -8.76484 31.2516 1.70914 -161.154 41.8269 -177.732
RightUpLeg  -20.5371 -15.5431 -9.89161
RightLeg  65.9035 -0.678363 -1.41981
RightFoot  14.0807 0.0939268 -0.216947
RightToes  -36.807 -0.193492 -0.296384
Spine  2.07485 1.0586 -3.13886
Spine1  3.39651 2.37587 -5.79344
HEad  -59.5978 7.6324 -2.35901
LeftShoulder1  -1.94126e-019 -3.10601e-018 -2.51263e-017
LeftArm  -19.5073 -30.2649 -52.5393
LeftForeArm  62.0505 -76.3894 -41.7952
LeftHand  -0.930142 -0.358218 18.8214
RightShoulder  -4.96962e-017 0 -2.36833e-017
RightArm  -66.4386 20.5265 12.658
RightForeArm  100.629 80.7989 70.2235
RightHand  -0.169032 -4.53269 -21.7559
LeftUpLeg  -46.56 11.4334 -1.37205
LeftLeg  54.0565 4.27884 5.13847
LeftFoot  -12.3361 -0.163802 -1.35408
LeftToes  -14.2343 1.9075e-006 4.29692e-008
223
root  -7.7594 32.058 0.69097 -160.085 36.8089 -176.813
RightUpLeg  -26.013 -17.9073 -5.51156
RightLeg  67.5563 0.353688 0.573244
RightFoot  9.86047 0.029053 0.195407
RightToes  -35.8022 -0.185848 -0.290203
Spine  2.63142 0.293454 -3.07857
Spine1  4.47239 0.703486 -5.61849
HEad  -60.6636 4.48465 -1.14262
LeftShoulder1  -1.94126e-019 -3.10601e-018 -2.51263e-017
LeftArm  -10.8251 -41.042 -58.8437
LeftForeArm  66.2447 -76.3775 -40.2525
LeftHand  -1.1479 -1.67532 18.941
RightShoulder  -4.96962e-017 0 -2.36833e-017
RightArm  -74.46 24.0665 10.9709
RightForeArm  113.413 81.2901 82.6635
RightHand  0.0866491 -5.77503 -26.8518
LeftUpLeg  -42.9166 9.15225 0.440619
LeftLeg  49.241 3.43648 3.4889
LeftFoot  -10.8799 -0.100037 -0.888905
LeftToes  -14.4444 1.9075e-006 4.29692e-008
